<?xml version="1.0" standalone="no"?>
<!DOCTYPE svg PUBLIC "-//W3C//DTD SVG 20010904//EN"
 "http://www.w3.org/TR/2001/REC-SVG-20010904/DTD/svg10.dtd">
<svg version="1.0" xmlns="http://www.w3.org/2000/svg"
 width="1856.000000pt" height="1754.000000pt" viewBox="0 0 1856.000000 1754.000000"
 preserveAspectRatio="xMidYMid meet">
<metadata>
Created by potrace 1.14, written by Peter Selinger 2001-2017
</metadata>
<g transform="translate(0.000000,1754.000000) scale(0.100000,-0.100000)"
fill="#000000" stroke="none">
<path d="M6250 12379 c-216 -10 -520 -45 -687 -78 -29 -6 -77 -16 -105 -22
-29 -5 -70 -13 -91 -16 -20 -3 -40 -9 -43 -14 -3 -5 -23 -9 -45 -9 -21 0 -39
-4 -39 -10 0 -5 -15 -10 -34 -10 -19 0 -38 -4 -41 -10 -3 -5 -19 -10 -35 -10
-16 0 -32 -4 -35 -10 -3 -5 -19 -10 -35 -10 -16 0 -32 -4 -35 -10 -3 -5 -17
-10 -30 -10 -13 0 -27 -4 -30 -10 -3 -5 -19 -10 -36 -10 -16 0 -29 -4 -29 -10
0 -5 -9 -10 -20 -10 -11 0 -29 -4 -40 -10 -11 -5 -29 -14 -40 -20 -11 -5 -29
-10 -40 -10 -11 0 -20 -4 -20 -10 0 -5 -11 -10 -24 -10 -14 0 -28 -4 -31 -10
-3 -5 -15 -10 -26 -10 -10 0 -19 -4 -19 -8 0 -5 -22 -15 -50 -22 -27 -7 -50
-17 -50 -22 0 -4 -9 -8 -20 -8 -11 0 -20 -4 -20 -10 0 -5 -7 -10 -15 -10 -8 0
-23 -4 -33 -9 -14 -8 -282 -142 -369 -185 -13 -6 -23 -14 -23 -18 0 -5 -9 -8
-20 -8 -11 0 -20 -4 -20 -10 0 -5 -9 -10 -20 -10 -11 0 -20 -3 -20 -7 0 -5
-23 -19 -50 -32 -28 -14 -50 -29 -50 -33 0 -4 -9 -8 -20 -8 -11 0 -20 -3 -20
-7 0 -5 -23 -19 -50 -32 -28 -14 -50 -29 -50 -33 0 -4 -7 -8 -15 -8 -37 0
-165 -159 -165 -204 0 -9 -4 -16 -9 -16 -8 0 -23 -90 -23 -140 0 -46 15 -140
22 -140 4 0 10 -13 13 -29 3 -16 13 -36 22 -44 8 -9 15 -20 15 -27 0 -16 107
-120 125 -120 8 0 15 -3 15 -8 0 -4 15 -13 33 -20 17 -8 43 -19 56 -25 31 -15
248 -14 264 2 6 6 19 11 29 11 10 0 18 5 18 10 0 6 9 10 20 10 11 0 20 3 20 8
0 4 10 12 23 17 46 22 112 60 115 68 2 4 12 7 22 7 10 0 20 3 22 8 3 7 69 45
115 67 13 5 23 13 23 18 0 4 9 7 20 7 11 0 20 5 20 10 0 6 9 10 19 10 11 0 21
3 23 8 4 10 128 72 144 72 8 0 14 5 14 10 0 6 9 10 20 10 11 0 20 5 20 10 0 6
9 10 20 10 11 0 20 5 20 10 0 6 7 10 15 10 8 0 24 5 35 10 11 6 29 15 40 20
11 6 27 10 35 10 8 0 15 4 15 8 0 5 23 15 50 22 28 7 50 17 50 22 0 4 14 8 30
8 17 0 30 5 30 10 0 6 11 10 24 10 14 0 28 5 31 10 3 6 17 10 30 10 13 0 27 5
30 10 3 6 17 10 30 10 13 0 27 5 30 10 3 6 19 10 36 10 16 0 29 5 29 10 0 6
15 10 34 10 19 0 38 5 41 10 3 6 21 10 40 10 19 0 37 5 40 10 3 6 24 10 45 10
21 0 42 5 45 10 3 6 25 10 49 10 23 0 46 4 52 9 5 5 32 12 59 15 28 4 82 11
120 16 437 61 1080 61 1510 0 39 -5 94 -13 123 -16 29 -4 55 -10 58 -15 3 -5
25 -9 49 -9 24 0 47 -4 50 -10 3 -5 24 -10 45 -10 21 0 42 -4 45 -10 3 -5 21
-10 40 -10 19 0 37 -4 40 -10 3 -5 22 -10 41 -10 19 0 34 -4 34 -10 0 -5 14
-10 30 -10 17 0 30 -4 30 -10 0 -5 13 -10 29 -10 17 0 33 -4 36 -10 3 -5 17
-10 30 -10 13 0 27 -4 30 -10 3 -5 17 -10 31 -10 13 0 24 -4 24 -10 0 -5 14
-10 30 -10 17 0 30 -4 30 -10 0 -5 9 -10 19 -10 11 0 23 -4 26 -10 3 -5 17
-10 31 -10 13 0 24 -4 24 -10 0 -5 6 -10 13 -10 12 0 80 -29 119 -50 10 -6 25
-10 33 -10 8 0 15 -4 15 -10 0 -5 9 -10 20 -10 11 0 20 -4 20 -10 0 -5 9 -10
20 -10 11 0 20 -4 20 -10 0 -5 6 -10 13 -10 18 0 67 -24 67 -32 0 -5 9 -8 20
-8 11 0 20 -4 20 -10 0 -5 9 -10 20 -10 11 0 20 -4 20 -10 0 -5 9 -10 19 -10
11 0 21 -3 23 -7 3 -8 69 -46 115 -68 13 -5 23 -13 23 -17 0 -5 9 -8 20 -8 11
0 20 -3 20 -7 0 -5 23 -19 50 -32 28 -14 50 -29 50 -33 0 -4 9 -8 19 -8 11 0
21 -3 23 -7 3 -8 69 -46 115 -68 13 -5 23 -13 23 -17 0 -5 9 -8 19 -8 11 0 21
-3 23 -7 3 -8 69 -46 115 -68 13 -5 23 -13 23 -17 0 -5 9 -8 19 -8 11 0 21 -3
23 -8 4 -10 290 -152 306 -152 6 0 12 -4 12 -10 0 -5 9 -10 20 -10 11 0 20 -4
20 -10 0 -5 6 -10 13 -10 7 0 32 -9 55 -20 22 -11 48 -20 57 -20 8 0 15 -4 15
-10 0 -5 9 -10 19 -10 11 0 23 -4 26 -10 3 -5 17 -10 31 -10 13 0 24 -4 24
-10 0 -5 9 -10 19 -10 11 0 23 -4 26 -10 3 -5 17 -10 31 -10 13 0 24 -4 24
-10 0 -5 14 -10 30 -10 17 0 30 -4 30 -10 0 -5 11 -10 24 -10 14 0 28 -4 31
-10 3 -5 17 -10 30 -10 13 0 27 -4 30 -10 3 -5 19 -10 36 -10 16 0 29 -4 29
-10 0 -5 13 -10 29 -10 17 0 33 -4 36 -10 3 -5 19 -10 35 -10 16 0 32 -4 35
-10 3 -5 21 -10 40 -10 19 0 37 -4 40 -10 3 -5 21 -10 40 -10 19 0 37 -4 40
-10 3 -5 24 -10 45 -10 21 0 42 -4 45 -10 3 -5 25 -10 49 -10 23 0 46 -4 51
-9 6 -5 30 -12 55 -15 25 -3 74 -10 110 -16 214 -34 370 -47 688 -60 418 -17
888 6 1212 60 36 6 88 13 115 16 28 3 54 10 59 15 6 5 29 9 52 9 24 0 45 4 48
9 3 5 23 11 43 14 71 11 108 18 128 27 21 9 58 18 113 27 17 3 32 9 32 14 0 5
11 9 25 9 14 0 33 4 43 9 9 5 37 15 62 21 46 13 82 26 112 41 10 5 27 9 38 9
11 0 20 5 20 10 0 6 14 10 30 10 17 0 30 5 30 10 0 6 9 10 19 10 11 0 23 5 26
10 3 6 17 10 31 10 13 0 24 5 24 10 0 6 7 10 15 10 8 0 24 4 35 10 11 6 29 15
40 20 11 6 27 10 35 10 8 0 15 5 15 10 0 6 9 10 20 10 11 0 20 5 20 10 0 6 7
10 15 10 18 0 379 180 383 192 2 4 12 8 22 8 10 0 20 3 22 8 3 7 69 45 115 67
13 5 23 13 23 18 0 4 9 7 20 7 11 0 20 3 20 8 0 4 23 18 50 31 28 14 50 29 50
33 0 4 7 8 15 8 37 0 165 159 165 204 0 9 4 16 9 16 4 0 11 19 15 43 3 23 9
57 12 76 10 53 -14 147 -59 236 -39 74 -170 185 -220 185 -8 0 -17 5 -19 12
-6 17 -252 18 -269 1 -7 -7 -21 -13 -31 -13 -10 0 -18 -4 -18 -10 0 -5 -9 -10
-20 -10 -11 0 -20 -4 -20 -10 0 -5 -9 -10 -20 -10 -11 0 -20 -4 -20 -8 0 -4
-22 -19 -50 -33 -27 -13 -50 -27 -50 -31 0 -5 -9 -8 -20 -8 -11 0 -20 -3 -20
-7 0 -5 -10 -13 -23 -19 -59 -28 -152 -80 -155 -86 -2 -5 -12 -8 -23 -8 -10 0
-19 -4 -19 -10 0 -5 -9 -10 -20 -10 -11 0 -20 -4 -20 -10 0 -5 -9 -10 -20 -10
-11 0 -20 -4 -20 -10 0 -5 -9 -10 -20 -10 -11 0 -20 -4 -20 -10 0 -5 -9 -10
-20 -10 -11 0 -20 -4 -20 -10 0 -5 -9 -10 -20 -10 -11 0 -20 -4 -20 -10 0 -5
-6 -10 -13 -10 -7 0 -32 -9 -55 -20 -22 -11 -48 -20 -57 -20 -8 0 -15 -4 -15
-10 0 -5 -9 -10 -20 -10 -11 0 -20 -4 -20 -10 0 -5 -11 -10 -24 -10 -14 0 -28
-4 -31 -10 -3 -5 -15 -10 -26 -10 -10 0 -19 -4 -19 -10 0 -5 -13 -10 -30 -10
-16 0 -30 -4 -30 -10 0 -5 -13 -10 -30 -10 -16 0 -30 -4 -30 -10 0 -5 -13 -10
-30 -10 -16 0 -30 -4 -30 -10 0 -5 -13 -10 -30 -10 -16 0 -30 -4 -30 -10 0 -5
-13 -10 -29 -10 -17 0 -33 -4 -36 -10 -3 -5 -22 -10 -41 -10 -19 0 -34 -4 -34
-10 0 -5 -18 -10 -40 -10 -22 0 -40 -4 -40 -9 0 -5 -19 -11 -42 -14 -24 -3
-68 -11 -98 -17 -343 -69 -788 -98 -1220 -80 -284 12 -416 25 -630 60 -36 6
-83 13 -105 16 -22 3 -44 10 -50 15 -5 5 -26 9 -46 9 -21 0 -41 5 -44 10 -3 6
-21 10 -40 10 -19 0 -37 5 -40 10 -3 6 -19 10 -35 10 -16 0 -32 5 -35 10 -3 6
-19 10 -35 10 -16 0 -32 5 -35 10 -3 6 -19 10 -36 10 -16 0 -29 5 -29 10 0 6
-13 10 -30 10 -16 0 -30 5 -30 10 0 6 -13 10 -30 10 -16 0 -30 4 -30 8 0 5
-22 15 -50 22 -27 7 -50 17 -50 22 0 4 -11 8 -24 8 -14 0 -28 5 -31 10 -3 6
-15 10 -26 10 -10 0 -19 5 -19 10 0 6 -6 10 -13 10 -13 0 -67 23 -140 60 -22
11 -45 20 -53 20 -8 0 -14 5 -14 10 0 6 -9 10 -20 10 -11 0 -20 5 -20 10 0 6
-9 10 -19 10 -11 0 -21 3 -23 8 -2 6 -121 71 -195 106 -13 6 -23 14 -23 19 0
4 -9 7 -19 7 -11 0 -21 3 -23 8 -3 7 -69 45 -115 67 -13 5 -23 13 -23 18 0 4
-9 7 -20 7 -11 0 -20 4 -20 8 0 4 -22 19 -50 33 -27 13 -50 27 -50 32 0 4 -9
7 -19 7 -11 0 -21 3 -23 8 -3 7 -69 45 -115 67 -13 5 -23 13 -23 18 0 4 -9 7
-19 7 -11 0 -21 4 -23 8 -4 12 -405 212 -423 212 -8 0 -15 5 -15 10 0 6 -6 10
-13 10 -7 0 -32 9 -55 20 -22 11 -48 20 -57 20 -8 0 -15 4 -15 8 0 5 -22 15
-50 22 -27 7 -50 17 -50 22 0 4 -9 8 -20 8 -11 0 -30 5 -43 12 -48 24 -57 28
-76 28 -11 0 -23 5 -26 10 -3 6 -17 10 -30 10 -13 0 -27 5 -30 10 -3 6 -17 10
-30 10 -13 0 -27 5 -30 10 -3 6 -22 10 -41 10 -19 0 -34 5 -34 10 0 6 -13 10
-29 10 -17 0 -33 5 -36 10 -3 6 -22 10 -41 10 -19 0 -34 5 -34 10 0 6 -18 10
-39 10 -22 0 -42 4 -45 9 -3 5 -23 11 -43 14 -21 3 -63 11 -93 17 -30 6 -73
13 -95 16 -22 3 -49 9 -60 14 -11 5 -47 11 -80 15 -33 3 -91 10 -130 16 -319
43 -789 58 -1205 38z"/>
<path d="M6238 7795 c-4 -4 -67 -11 -140 -16 -190 -13 -418 -43 -598 -79 -30
-6 -74 -14 -97 -17 -24 -3 -43 -9 -43 -14 0 -5 -18 -9 -39 -9 -22 0 -43 -4
-46 -10 -3 -5 -22 -10 -41 -10 -19 0 -34 -4 -34 -10 0 -5 -15 -10 -34 -10 -19
0 -38 -4 -41 -10 -3 -5 -19 -10 -36 -10 -16 0 -29 -4 -29 -10 0 -5 -13 -10
-29 -10 -17 0 -33 -4 -36 -10 -3 -5 -17 -10 -30 -10 -13 0 -27 -4 -30 -10 -3
-5 -17 -10 -30 -10 -13 0 -27 -4 -30 -10 -3 -5 -17 -10 -31 -10 -13 0 -24 -4
-24 -10 0 -5 -13 -10 -30 -10 -16 0 -30 -4 -30 -8 0 -5 -22 -15 -50 -22 -27
-7 -50 -16 -50 -20 0 -4 -22 -13 -50 -20 -27 -7 -50 -17 -50 -22 0 -4 -9 -8
-20 -8 -11 0 -20 -4 -20 -10 0 -5 -5 -10 -12 -10 -18 0 -80 -29 -278 -129
-102 -52 -195 -99 -207 -105 -13 -6 -23 -14 -23 -18 0 -5 -9 -8 -20 -8 -11 0
-20 -3 -20 -7 0 -5 -10 -13 -23 -18 -32 -16 -111 -59 -117 -65 -3 -3 -26 -17
-52 -30 -27 -14 -48 -28 -48 -32 0 -5 -6 -8 -14 -8 -7 0 -31 -19 -52 -43 -61
-68 -74 -86 -74 -102 0 -8 -4 -15 -10 -15 -5 0 -10 -8 -10 -18 0 -10 -3 -22
-7 -26 -5 -4 -13 -38 -19 -74 -11 -65 -4 -157 16 -207 23 -57 41 -93 62 -119
43 -55 113 -116 133 -116 8 0 15 -4 15 -10 0 -5 9 -10 20 -10 11 0 20 -4 20
-9 0 -20 225 -40 243 -22 6 6 23 11 38 11 15 0 31 5 34 10 3 6 15 10 26 10 10
0 19 3 19 8 0 4 10 12 23 17 31 15 111 59 117 65 6 6 86 50 117 65 13 5 23 13
23 18 0 4 9 7 20 7 11 0 20 5 20 10 0 6 9 10 19 10 11 0 21 3 23 8 4 10 250
132 266 132 6 0 12 5 12 10 0 6 9 10 20 10 11 0 20 5 20 10 0 6 7 10 15 10 8
0 24 5 35 10 11 6 29 15 40 20 11 6 27 10 35 10 8 0 15 5 15 10 0 6 11 10 24
10 14 0 28 5 31 10 3 6 15 10 26 10 10 0 19 5 19 10 0 6 14 10 30 10 17 0 30
5 30 10 0 6 14 10 30 10 17 0 30 5 30 10 0 6 14 10 30 10 17 0 30 5 30 10 0 6
14 10 30 10 17 0 30 5 30 10 0 6 15 10 34 10 19 0 37 4 40 9 3 5 20 11 38 14
18 3 53 11 78 17 25 6 61 14 80 16 19 3 44 9 55 14 11 5 38 11 60 14 22 3 69
10 105 16 251 41 451 54 830 54 379 0 579 -13 830 -54 36 -6 83 -13 105 -16
22 -3 49 -9 60 -14 11 -5 36 -11 55 -14 19 -2 55 -10 80 -16 25 -6 60 -14 78
-17 18 -3 35 -9 38 -14 3 -5 18 -9 34 -9 16 0 32 -4 35 -10 3 -5 19 -10 36
-10 16 0 29 -4 29 -10 0 -5 14 -10 30 -10 17 0 30 -4 30 -10 0 -5 14 -10 30
-10 17 0 30 -4 30 -10 0 -5 9 -10 20 -10 11 0 29 -4 40 -10 11 -5 29 -14 40
-20 11 -5 29 -10 40 -10 11 0 20 -4 20 -10 0 -5 9 -10 20 -10 11 0 20 -4 20
-8 0 -5 23 -15 50 -22 28 -7 50 -17 50 -22 0 -4 9 -8 20 -8 11 0 20 -4 20 -10
0 -5 9 -10 20 -10 11 0 20 -4 20 -10 0 -5 6 -10 13 -10 15 0 181 -82 185 -92
2 -5 12 -8 23 -8 10 0 19 -4 19 -10 0 -5 9 -10 19 -10 11 0 21 -3 23 -7 3 -8
69 -46 115 -68 13 -5 23 -13 23 -17 0 -5 9 -8 20 -8 11 0 20 -3 20 -7 0 -5 10
-13 23 -18 31 -15 111 -59 117 -65 6 -6 86 -50 117 -65 13 -5 23 -13 23 -17 0
-5 9 -8 20 -8 11 0 20 -3 20 -7 0 -5 10 -13 23 -19 59 -28 152 -80 155 -86 2
-5 12 -8 23 -8 10 0 19 -4 19 -10 0 -5 9 -10 19 -10 11 0 21 -3 23 -7 4 -11
128 -73 144 -73 8 0 14 -4 14 -10 0 -5 9 -10 20 -10 11 0 20 -4 20 -10 0 -5 9
-10 20 -10 11 0 20 -4 20 -10 0 -5 6 -10 13 -10 7 0 32 -9 55 -20 22 -11 48
-20 57 -20 8 0 15 -4 15 -10 0 -5 9 -10 19 -10 11 0 23 -4 26 -10 3 -5 17 -10
31 -10 13 0 24 -4 24 -10 0 -5 9 -10 20 -10 11 0 20 -4 20 -10 0 -5 14 -10 30
-10 17 0 30 -4 30 -10 0 -5 9 -10 20 -10 11 0 29 -4 40 -10 11 -5 29 -14 40
-20 11 -5 29 -10 39 -10 11 0 23 -4 26 -10 3 -5 19 -10 35 -10 16 0 32 -4 35
-10 3 -5 19 -10 36 -10 16 0 29 -4 29 -10 0 -5 13 -10 29 -10 17 0 33 -4 36
-10 3 -5 22 -10 41 -10 19 0 34 -4 34 -10 0 -5 18 -10 40 -10 22 0 40 -4 40
-10 0 -5 18 -10 39 -10 22 0 43 -4 46 -10 3 -5 23 -10 44 -10 20 0 41 -4 46
-9 6 -5 33 -12 60 -15 28 -2 77 -10 110 -15 533 -93 1310 -102 1865 -22 36 5
90 13 120 16 30 4 64 10 75 15 11 5 40 12 65 15 25 3 64 8 88 11 23 3 42 10
42 15 0 5 18 9 39 9 22 0 43 5 46 10 3 6 21 10 40 10 19 0 37 5 40 10 3 6 22
10 41 10 19 0 34 5 34 10 0 6 13 10 29 10 17 0 33 5 36 10 3 6 19 10 35 10 16
0 32 5 35 10 3 6 19 10 36 10 16 0 29 5 29 10 0 6 14 10 30 10 17 0 30 5 30
10 0 6 9 10 20 10 11 0 29 4 40 10 11 6 29 15 40 20 11 6 29 10 40 10 11 0 20
4 20 8 0 5 23 15 50 22 28 7 50 17 50 22 0 4 7 8 15 8 8 0 24 4 35 10 11 5 29
14 40 20 11 6 27 10 35 10 8 0 15 5 15 10 0 6 9 10 20 10 11 0 20 5 20 10 0 6
6 10 14 10 17 0 300 141 304 152 2 4 12 8 23 8 10 0 19 5 19 10 0 6 9 10 19
10 11 0 21 3 23 8 3 7 69 45 115 67 13 5 23 13 23 18 0 4 9 7 19 7 11 0 21 3
23 8 4 9 57 41 81 49 9 3 17 9 17 14 0 5 7 9 15 9 30 0 165 135 165 165 0 8 5
15 10 15 6 0 10 9 10 19 0 11 4 22 9 25 29 18 29 296 0 296 -5 0 -9 7 -9 15 0
17 -18 52 -37 73 -7 7 -13 17 -13 22 0 33 -164 150 -210 150 -10 0 -22 4 -25
10 -8 13 -212 13 -220 0 -3 -5 -17 -10 -31 -10 -13 0 -24 -4 -24 -10 0 -5 -6
-10 -13 -10 -18 0 -67 -24 -67 -32 0 -5 -9 -8 -20 -8 -11 0 -20 -4 -20 -8 0
-4 -22 -19 -50 -33 -27 -13 -50 -27 -50 -31 0 -5 -9 -8 -20 -8 -11 0 -20 -3
-20 -7 0 -5 -10 -13 -23 -19 -64 -30 -192 -100 -195 -106 -2 -5 -12 -8 -23 -8
-10 0 -19 -4 -19 -10 0 -5 -9 -10 -20 -10 -11 0 -20 -4 -20 -10 0 -5 -9 -10
-20 -10 -11 0 -20 -4 -20 -10 0 -5 -6 -10 -13 -10 -7 0 -39 -13 -72 -30 -33
-16 -68 -30 -77 -30 -10 0 -18 -4 -18 -10 0 -5 -9 -10 -20 -10 -11 0 -20 -4
-20 -10 0 -5 -11 -10 -24 -10 -14 0 -28 -4 -31 -10 -3 -5 -15 -10 -26 -10 -10
0 -19 -4 -19 -10 0 -5 -13 -10 -30 -10 -16 0 -30 -4 -30 -10 0 -5 -11 -10 -24
-10 -14 0 -28 -4 -31 -10 -3 -5 -17 -10 -30 -10 -13 0 -27 -4 -30 -10 -3 -5
-17 -10 -30 -10 -13 0 -27 -4 -30 -10 -3 -5 -19 -10 -36 -10 -16 0 -29 -4 -29
-9 0 -5 -15 -11 -32 -14 -55 -9 -92 -18 -113 -27 -11 -5 -36 -11 -55 -15 -19
-3 -56 -10 -82 -15 -129 -26 -158 -32 -218 -41 -544 -79 -1213 -71 -1710 20
-30 6 -73 13 -95 16 -22 4 -49 10 -60 15 -11 5 -36 11 -55 15 -19 3 -50 8 -68
12 -18 3 -35 9 -38 14 -3 5 -21 9 -40 9 -19 0 -34 5 -34 10 0 6 -13 10 -30 10
-16 0 -30 5 -30 10 0 6 -13 10 -30 10 -16 0 -30 5 -30 10 0 6 -13 10 -30 10
-16 0 -30 5 -30 10 0 6 -13 10 -30 10 -16 0 -30 5 -30 10 0 6 -11 10 -24 10
-14 0 -28 5 -31 10 -3 6 -15 10 -26 10 -10 0 -19 5 -19 10 0 6 -11 10 -24 10
-14 0 -28 5 -31 10 -3 6 -15 10 -26 10 -10 0 -19 5 -19 10 0 6 -9 10 -20 10
-11 0 -20 5 -20 10 0 6 -7 10 -17 10 -9 0 -98 41 -197 91 -100 51 -191 97
-203 103 -13 6 -23 14 -23 19 0 4 -9 7 -20 7 -11 0 -20 3 -20 8 0 4 -10 12
-23 17 -31 15 -111 59 -117 65 -6 6 -86 50 -117 65 -13 5 -23 13 -23 18 0 4
-9 7 -19 7 -11 0 -21 3 -23 8 -4 9 -57 41 -80 49 -10 3 -18 9 -18 14 0 5 -9 9
-20 9 -11 0 -20 5 -20 10 0 6 -9 10 -20 10 -11 0 -20 3 -20 8 0 4 -10 12 -23
18 -12 6 -87 44 -167 85 -170 87 -261 129 -278 129 -7 0 -12 5 -12 10 0 6 -7
10 -15 10 -8 0 -24 5 -35 10 -11 6 -29 15 -40 20 -11 6 -27 10 -35 10 -8 0
-15 5 -15 10 0 6 -11 10 -24 10 -14 0 -28 5 -31 10 -3 6 -15 10 -26 10 -10 0
-19 5 -19 10 0 6 -13 10 -30 10 -16 0 -30 5 -30 10 0 6 -11 10 -24 10 -14 0
-28 5 -31 10 -3 6 -17 10 -30 10 -13 0 -27 5 -30 10 -3 6 -17 10 -30 10 -13 0
-27 5 -30 10 -3 6 -19 10 -36 10 -16 0 -29 5 -29 10 0 6 -13 10 -29 10 -17 0
-33 5 -36 10 -3 6 -22 10 -41 10 -19 0 -34 5 -34 10 0 6 -15 10 -34 10 -19 0
-38 5 -41 10 -3 6 -24 10 -46 10 -21 0 -39 4 -39 9 0 5 -19 11 -42 14 -24 3
-68 11 -98 17 -154 31 -388 63 -585 81 -129 12 -947 23 -957 14z"/>
</g>
</svg>
